<svg xmlns="http://www.w3.org/2000/svg" width="68" height="68" viewBox="0 0 68 68">
    <g fill="none" fill-rule="evenodd">
        <path fill="#282828" d="M66.579 7.481c-.782-2.945-3.086-5.264-6.012-6.05C55.264 0 34 0 34 0S12.736 0 7.433 1.43c-2.926.787-5.23 3.106-6.012 6.051C0 12.818 0 23.955 0 23.955S0 35.09 1.421 40.428c.782 2.945 3.086 5.264 6.012 6.051C12.736 47.91 34 47.91 34 47.91s21.264 0 26.567-1.43c2.926-.787 5.23-3.106 6.012-6.051C68 35.09 68 23.955 68 23.955s0-11.137-1.421-16.474" transform="translate(0 10)"/>
        <path fill="#FFFFFE" d="M27.045 34.065L27.045 13.844 44.818 23.955 27.045 34.065" transform="translate(0 10)"/>
    </g>
</svg>
